<svg width="780" height="320" viewBox="0 0 780 320"
     xmlns="http://www.w3.org/2000/svg" role="img">
  <style>
    .txt   { font: 600 15px 'Segoe UI', system-ui, -apple-system, sans-serif; fill: #e6edf3; }
    .sub   { font: 400 11.5px 'Segoe UI', system-ui, -apple-system, sans-serif; fill: #8b949e; }
    .lbl   { font: 500 12.5px 'Segoe UI', system-ui, -apple-system, sans-serif; fill: #e6edf3; }
    .pct   { font: 600 12.5px 'Segoe UI', system-ui, -apple-system, sans-serif; fill: #8b949e; }
    .big   { font: 700 30px 'Segoe UI', system-ui, -apple-system, sans-serif; fill: #e6edf3; }
    
    .seg {
      stroke-dasharray: 100 100;
      stroke-dashoffset: 100;
      animation: draw 0.9s ease-out forwards;
    }
    @keyframes draw { to { stroke-dashoffset: 0; } }
    .fade { opacity: 0; animation: fadein 0.5s ease-out forwards; }
    @keyframes fadein { to { opacity: 1; } }
    
    @media (prefers-reduced-motion: reduce) {
      * { animation: none !important; }
    }
  </style>
  <rect x="0.5" y="0.5" width="779" height="319" rx="10"
        fill="#0d1117" stroke="#30363d"/>
  <text class="txt" x="24" y="34">Languages</text>
  <text class="sub" x="24" y="52">by bytes of code, across 14 public repositories</text>
  <path class="seg" d="M 172.51 82.03 A 96 96 0 1 1 79.83 210.95" pathLength="100" fill="none" stroke="#3572A5" stroke-width="30" style="animation-delay:0.00s"/>
  <path class="seg" d="M 78.23 206.18 A 96 96 0 0 1 98.22 114.25" pathLength="100" fill="none" stroke="#8b949e" stroke-width="30" style="animation-delay:0.12s"/>
  <path class="seg" d="M 101.66 110.58 A 96 96 0 0 1 144.62 85.42" pathLength="100" fill="none" stroke="#3178c6" stroke-width="30" style="animation-delay:0.24s"/>
  <path class="seg" d="M 149.50 84.21 A 96 96 0 0 1 158.51 82.69" pathLength="100" fill="none" stroke="#e34c26" stroke-width="30" style="animation-delay:0.36s"/>
  <path class="seg" d="M 163.52 82.22 A 96 96 0 0 1 167.49 82.03" pathLength="100" fill="none" stroke="#484f58" stroke-width="30" style="animation-delay:0.48s"/>
  <text class="big fade" x="170" y="176" text-anchor="middle" style="animation-delay:0.5s">14</text>
  <text class="sub fade" x="170" y="196" text-anchor="middle" style="animation-delay:0.5s">repos &#183; 752 KB</text>
  <g class="fade" style="animation-delay:0.15s"><circle cx="360" cy="88" r="6" fill="#3572A5"/><text class="lbl" x="376" y="92">Python</text><text class="pct" x="510" y="92" text-anchor="end">69.8%</text></g>
  <g class="fade" style="animation-delay:0.25s"><circle cx="360" cy="118" r="6" fill="#8b949e"/><text class="lbl" x="376" y="122">C</text><text class="pct" x="510" y="122" text-anchor="end">17.1%</text></g>
  <g class="fade" style="animation-delay:0.35s"><circle cx="360" cy="148" r="6" fill="#3178c6"/><text class="lbl" x="376" y="152">TypeScript</text><text class="pct" x="510" y="152" text-anchor="end">9.2%</text></g>
  <g class="fade" style="animation-delay:0.45s"><circle cx="360" cy="178" r="6" fill="#e34c26"/><text class="lbl" x="376" y="182">HTML</text><text class="pct" x="510" y="182" text-anchor="end">2.3%</text></g>
  <g class="fade" style="animation-delay:0.55s"><circle cx="360" cy="208" r="6" fill="#484f58"/><text class="lbl" x="376" y="212">Other</text><text class="pct" x="510" y="212" text-anchor="end">1.5%</text></g>
  <text class="sub" x="756" y="304" text-anchor="end">auto-generated &#183; 2026-07-08</text>
</svg>
